<?xml version="1.0" encoding="UTF-8"?><svg id="Laag_3" xmlns="http://www.w3.org/2000/svg" viewBox="0 0 150 150"><path d="M69.386,36.255c.638,4.243,1.277,8.485,1.915,12.728.596,3.959,1.433,7.96,1.706,11.956.109,1.59.107,3.287-.513,4.785-.605,1.461-1.832,2.368-3.051,3.293-1.299.985-2.55,2.022-3.257,3.53-.775,1.653-.853,3.491-.738,5.284.545,8.505,1.243,16.978,1.492,25.502.124,4.247.25,8.51.181,12.759-.028,1.698-.312,3.237-1.85,4.178-1.182.723-2.638.981-4.003,1.063-1.68.101-3.536.041-4.928-1.032-1.095-.844-1.74-2.156-2.136-3.449-1.013-3.311-.871-7.007-.747-10.425.149-4.098.902-8.104,1.294-12.176.408-4.237.288-8.528.321-12.78.017-2.126.034-4.252.05-6.378.013-1.661.408-3.787-.956-5.041-.508-.468-1.157-.749-1.718-1.143-.661-.464-1.252-1.041-1.771-1.66-1.055-1.259-1.791-2.785-2.255-4.353-2.312-7.811,1.879-15.877,2.853-23.572.059-.467.097-.936.15-1.403.057-.507.279-.73-.321-.693-.674.041-.252.256-.125.771.125.508.15,1.055.208,1.574.23,2.068.372,4.144.499,6.22s.236,4.157.401,6.232c.137,1.715.245,3.626,1.581,4.884,1.056.995,2.721,1.353,4.003.574,1.411-.858,1.589-2.587,1.642-4.075.146-4.043-.201-8.091.045-12.133.123-2.027.435-4.012,1.002-5.963l-1.845,1.048c2.214.501,1.985,3.637,2.11,5.367.161,2.224.405,4.44.713,6.648.331,2.369.65,4.825,1.268,7.138.379,1.417,1.344,3.076,3.028,3.024,1.992-.061,2.521-2.128,2.737-3.738.315-2.349.18-4.754.163-7.118-.016-2.293-.037-4.586-.048-6.879-.005-1.05-.205-3.6,1.053-4.122,1.757-.73.987-3.634-.798-2.893-3.461,1.438-3.268,5.311-3.245,8.489.016,2.293.032,4.586.048,6.879.008,1.11.033,2.223.004,3.334-.007.273-.426,3.079-.373,3.129.646.128.81.01.491-.355l-.089-.246c-.196-.54-.262-1.159-.376-1.72-.223-1.106-.426-2.216-.609-3.329-.371-2.253-.654-4.52-.853-6.795-.305-3.491-.04-8.712-4.428-9.705-.799-.181-1.61.239-1.845,1.048-1.167,4.016-1.245,8.197-1.179,12.349.035,2.181.104,4.364.025,6.545-.013.347.031,1.491-.314,1.479-.8-.029-.827-1.859-.872-2.383-.369-4.306-.46-8.633-.939-12.931-.182-1.635-.255-3.675-1.753-4.715-1.383-.961-3.109-.249-3.692,1.259-.278.721-.284,1.512-.359,2.273-.11,1.115-.3,2.22-.522,3.318-.42,2.081-.97,4.133-1.484,6.192-1.034,4.14-1.952,8.449-1.447,12.734.403,3.422,1.705,6.789,4.132,9.294.567.585,1.204,1.109,1.874,1.572.282.195.837.369,1.037.643.222.304.169.557.167.988-.012,2.29-.036,4.579-.054,6.869-.035,4.422.086,8.882-.25,13.294-.323,4.237-1.173,8.403-1.358,12.656-.259,5.953-.674,15.681,6.455,17.966,3.022.969,7.288.586,9.996-1.14,3.474-2.215,3.212-6.142,3.187-9.796-.062-8.988-.405-17.974-1.028-26.941-.154-2.221-.327-4.441-.514-6.659-.16-1.888-.538-4.155.487-5.872.838-1.403,2.447-2.244,3.67-3.267,1.299-1.087,2.245-2.452,2.78-4.061,1.137-3.417.308-7.201-.211-10.651l-2.026-13.462-.994-6.609c-.286-1.903-3.177-1.094-2.893.798h0Z" fill="#fff" stroke-width="0"/><path d="M99.18,121.693c3.769-4.853,4.12-10.967,4.123-16.886.003-7.291-.023-14.583-.035-21.874-.024-14.818-.048-29.637-.071-44.455-.002-1.327.262-2.969-.584-4.094-1.033-1.373-2.711-1.065-4.037-.356-2.391,1.278-4.576,3.192-6.383,5.196-3.756,4.164-6.324,9.389-7.481,14.868-1.371,6.491-.889,13.258.8,19.642.407,1.537.885,3.055,1.427,4.55.274.756.655,1.507.876,2.278.265.93-.311,1.344-.767,2.132-1.52,2.628-1.484,5.754-1.448,8.693.051,4.11-.065,8.219-.373,12.318-.148,1.967-.338,3.931-.569,5.889-.221,1.878-.491,3.755-.152,5.638,1.057,5.871,10.5,11.003,14.956,5.57,1.215-1.481-.896-3.616-2.121-2.121-1.81,2.208-4.706,1.371-6.788.028-1.044-.674-2.083-1.538-2.655-2.664-.664-1.306-.61-2.806-.49-4.227.27-3.201.718-6.379.923-9.588.21-3.281.305-6.569.281-9.856-.02-2.677-.367-5.747,1.027-8.165.625-1.084,1.395-1.941,1.325-3.277-.076-1.451-.966-2.941-1.434-4.301-1.946-5.657-2.974-11.644-2.511-17.631.404-5.227,2.09-10.322,4.998-14.692,1.385-2.082,3.073-3.96,4.996-5.559.909-.756,1.889-1.447,2.916-2.034.552-.315.34-.059.257-.599.042.274.009.587.011.865.007.999.003,1.998.005,2.997.021,13.237.042,26.473.064,39.71.012,7.409.024,14.818.036,22.228.009,5.81.551,12.778-3.24,17.658-1.17,1.507.938,3.645,2.121,2.121h0Z" fill="#fff" stroke-width="0"/><path d="M61.853,115.992c-.447-13.402-.444-26.816.008-40.218.065-1.931-2.935-1.929-3,0-.453,13.402-.455,26.816-.008,40.218.064,1.925,3.065,1.934,3,0h0Z" fill="#fff" stroke-width="0"/><path d="M94.852,115.587c.635-11.658,1.271-23.317,1.906-34.975.105-1.929-2.895-1.923-3,0-.635,11.658-1.271,23.317-1.906,34.975-.105,1.929,2.895,1.923,3,0h0Z" fill="#fff" stroke-width="0"/></svg>