<?xml version="1.0" encoding="UTF-8"?><svg id="Laag_3" xmlns="http://www.w3.org/2000/svg" viewBox="0 0 150 150"><path d="M99.65,44.097c-5.4-1.456-10.892-2.886-16.513-3.054-5.371-.16-10.503,1.128-15.195,3.733-8.417,4.673-15.436,12.09-18.749,21.196-6.117,16.812.572,39.861,18.763,45.97,5.639,1.894,11.97,2.31,17.873,1.919,6.001-.398,11.904-1.762,17.451-4.088l-1.694-2.203c-6.209,9.201-18.097,12.69-28.723,11.742-11.984-1.068-23.347-7.482-30.375-17.256-7.142-9.932-9.847-22.652-6.867-34.571,2.871-11.486,11.169-21.501,22.349-25.716,3.46-1.304,7.104-2.021,10.754-2.551,3.937-.572,7.992-1.171,11.977-.856,3.881.307,7.483,1.94,10.941,3.62s6.826,3.579,10.073,5.655l.358-2.742c-1.132.229-2.269-.075-3.137-.835-1.447-1.267-3.578.847-2.121,2.121,1.719,1.505,3.818,2.06,6.056,1.606,1.333-.27,1.375-2.092.358-2.742-3.118-1.993-6.337-3.82-9.658-5.452-3.214-1.579-6.562-3.182-10.103-3.863-3.779-.727-7.599-.416-11.387.045-3.726.454-7.469.947-11.106,1.899-12.367,3.238-22.353,12.615-26.845,24.52-4.69,12.429-3.135,26.642,3.58,38.025,6.657,11.285,18.174,19.28,31.086,21.553,12.92,2.274,27.711-1.326,35.38-12.69.684-1.014-.48-2.713-1.694-2.203-9.194,3.855-19.483,5.116-29.309,3.287-4.708-.876-8.975-2.72-12.561-5.935-3.158-2.831-5.665-6.317-7.464-10.15-3.461-7.373-4.13-16.052-2.111-23.918,2.236-8.713,7.886-15.815,15.258-20.84,4.665-3.18,9.757-5.219,15.456-5.294,5.825-.076,11.522,1.454,17.101,2.959,1.866.503,2.663-2.39.798-2.893h0Z" fill="#fff" stroke-width="0"/><path d="M110.78,70.879c-3.121.166-6.242.333-9.363.499l1.446,1.101c-.771-3.537-1.541-7.075-2.312-10.612-.334-1.534-2.45-1.314-2.893,0-.553,1.641-1.106,3.283-1.659,4.924-.263.782-.527,1.563-.79,2.345-.222.659-.409,2.067-.869,2.579-.308.343-.779.232-1.34.241-.789.013-1.578.02-2.367.022-1.736.003-3.471-.023-5.206-.073-1.249-.036-2.046,1.7-1.061,2.561,1.122.98,2.245,1.96,3.367,2.939.561.49,1.122.98,1.683,1.47.485.423,1.021.69.987,1.329-.071,1.323-.639,2.768-.938,4.062-.349,1.513-.699,3.027-1.048,4.54-.233,1.011.713,2.284,1.845,1.845,1.44-.558,2.829-1.215,4.125-2.06,1.238-.807,2.252-1.816,3.391-2.737.62-.502.788-.148,1.449.317.741.521,1.483,1.043,2.224,1.564,1.483,1.043,2.965,2.086,4.448,3.129,1.029.724,2.668-.493,2.203-1.694-.592-1.532-1.183-3.063-1.775-4.595-.296-.766-.592-1.532-.887-2.297-.228-.591-.744-1.33-.362-1.852s1.138-.946,1.644-1.341c.62-.483,1.249-.955,1.884-1.418,1.292-.943,2.613-1.845,3.955-2.716,1.013-.657.91-1.915,0-2.59-.665-.493-1.394-.806-2.21-.954-1.888-.343-2.697,2.548-.798,2.893.598.109,1.006.29,1.493.651v-2.59c-1.662,1.078-3.29,2.205-4.873,3.395-1.286.967-3.055,1.967-3.89,3.378-.947,1.601.023,3.32.618,4.86.769,1.991,1.538,3.982,2.307,5.973l2.203-1.694c-1.617-1.138-3.235-2.275-4.852-3.413-1.337-.94-2.998-2.661-4.779-2.362-1.53.257-2.536,1.72-3.688,2.63-1.394,1.101-2.974,1.988-4.629,2.63l1.845,1.845c.405-1.752.809-3.505,1.214-5.257.346-1.5,1.092-3.316.907-4.866-.191-1.601-1.707-2.565-2.828-3.544-1.372-1.197-2.743-2.395-4.115-3.592l-1.061,2.561c2.051.059,4.102.084,6.153.068,1.567-.012,3.731.318,4.893-.992.485-.547.687-1.26.918-1.938.372-1.093.738-2.188,1.106-3.283.685-2.032,1.37-4.064,2.055-6.096h-2.893c.771,3.537,1.541,7.075,2.312,10.612.133.611.819,1.135,1.446,1.101,3.121-.166,6.242-.333,9.363-.499,1.92-.102,1.933-3.103,0-3h0Z" fill="#fff" stroke-width="0"/></svg>