<?xml version="1.0" encoding="UTF-8"?><svg id="Laag_3" xmlns="http://www.w3.org/2000/svg" viewBox="0 0 150 150"><path d="M89.775,34.145c-5.157-.819-10.446-.177-15.625.119-2.722.156-5.443.312-8.165.468-1.32.076-2.639.151-3.959.227-1.226.07-2.533.043-3.689.504-2.07.825-3.356,3.171-4.3,5.066-1.045,2.097-1.794,4.325-2.439,6.573-1.358,4.733-2.794,9.668-3.243,14.586-.217,2.379-.04,4.842.859,7.074.87,2.158,2.289,4.023,3.86,5.72,3.036,3.281,6.797,5.857,10.918,7.573,1.806.752,4.096,1.096,5.658,2.323.878.69,1.035,1.685,1.084,2.742.06,1.279.055,2.565.063,3.845.033,5.365-.157,10.731-.569,16.08-.191,2.476-.184,5.181-.808,7.592-.545,2.106-2.859,2.171-4.67,2.411-2.323.309-4.758.839-6.858,1.919-1.551.797-3.125,3.05-1.522,4.603.815.79,2.504.434,3.54.429,1.405-.006,2.81-.011,4.215-.017,2.727-.011,5.455-.022,8.182-.033,2.645-.011,5.289-.021,7.934-.032,2.735-.011,5.547.167,8.273-.055,1.954-.159,4.169-1.606,3.55-3.876-.587-2.153-3.296-2.363-5.09-2.749-2.37-.509-4.988-.783-7.258-1.647-2.223-.846-2.274-3.027-2.316-5.096-.107-5.326-.059-10.656.125-15.979.096-2.774.133-5.586.406-8.349.11-1.115.499-1.418,1.546-1.704s2.11-.477,3.141-.834c4.28-1.481,7.938-4.279,11.156-7.405,1.681-1.633,3.371-3.365,4.513-5.432,1.094-1.982,1.67-4.165,1.902-6.407.5-4.818-.868-9.573-2.488-14.055-.848-2.346-1.771-4.666-2.531-7.043-.626-1.959-1.127-3.985-2.12-5.802-.898-1.642-2.183-2.834-3.919-3.528-1.792-.717-2.571,2.183-.798,2.893,1.614.646,2.399,2.496,2.934,4.02.709,2.016,1.27,4.078,2,6.088,1.589,4.374,3.526,8.79,3.934,13.476.186,2.135.101,4.302-.495,6.37-.653,2.266-1.952,4.103-3.562,5.795-2.922,3.072-6.239,5.994-10.169,7.693-1.813.783-3.86.906-5.626,1.762-2.114,1.025-2.351,2.96-2.477,5.093-.301,5.072-.472,10.152-.514,15.233-.022,2.622-.01,5.245.039,7.867.036,1.906.078,3.972,1.099,5.652,1.091,1.796,2.998,2.551,4.961,3,2.363.541,4.742,1.019,7.112,1.528.519.111,1.034.208,1.532.394l.035-.111c.084-.19.015-.17-.207.059-.329-.01-.699.106-1.039.113-1.391.031-2.784.013-4.176.018-2.893.011-5.785.023-8.678.034-5.868.023-11.736.047-17.604.07l1.295.743c.3.468-.146.148.246.058.158-.036.509-.289.631-.344.465-.213.969-.373,1.454-.533,1.051-.345,2.127-.616,3.217-.804,1.866-.322,3.826-.34,5.519-1.296,1.704-.962,2.463-2.659,2.727-4.526.328-2.325.506-4.68.689-7.02.387-4.943.584-9.902.591-14.86.003-2.286.188-4.742-.237-6.998-.355-1.888-1.614-3.316-3.294-4.181s-3.555-1.276-5.293-2.008c-1.878-.791-3.672-1.808-5.339-2.977-3.31-2.319-6.962-5.713-8.013-9.749-1.137-4.366.435-9.209,1.491-13.444,1.074-4.305,2.071-8.888,4.438-12.7.585-.942,1.218-2.02,2.376-2.265,1.376-.291,2.919-.195,4.323-.275,2.722-.156,5.443-.312,8.165-.468,2.789-.16,5.578-.324,8.367-.479,2.725-.151,5.485-.277,8.192.153,1.889.3,2.702-2.59.798-2.893h0Z" fill="#fff" stroke-width="0"/><path d="M93.221,58.175c-6.269,1.284-12.657-.527-18.953-.635-6.366-.108-12.757.777-19.086,1.371-1.906.179-1.924,3.181,0,3,6.484-.608,13.044-1.534,19.568-1.36,6.456.172,12.828,1.836,19.268.517,1.89-.387,1.09-3.279-.798-2.893h0Z" classname="custombutton"/></svg>